<?xml version="1.0" encoding="UTF-8" standalone="no"?>
<svg
   xmlns:dc="http://purl.org/dc/elements/1.1/"
   xmlns:cc="http://creativecommons.org/ns#"
   xmlns:rdf="http://www.w3.org/1999/02/22-rdf-syntax-ns#"
   xmlns:svg="http://www.w3.org/2000/svg"
   xmlns="http://www.w3.org/2000/svg"
   xmlns:sodipodi="http://sodipodi.sourceforge.net/DTD/sodipodi-0.dtd"
   xmlns:inkscape="http://www.inkscape.org/namespaces/inkscape"
   width=24
   height=24
   viewBox="0 0 32.5782 31.775002"
   version="1.2"
   id="svg192"
   sodipodi:docname="GitHub-Mark.svg"
   inkscape:version="0.92.4 5da689c313, 2019-01-14">
  <metadata
     id="metadata196">
    <rdf:RDF>
      <cc:Work
         rdf:about="">
        <dc:format>image/svg+xml</dc:format>
        <dc:type
           rdf:resource="http://purl.org/dc/dcmitype/StillImage" />
        <dc:title>GitHub</dc:title>
      </cc:Work>
    </rdf:RDF>
  </metadata>
  <sodipodi:namedview
     pagecolor="#ffffff"
     bordercolor="#666666"
     borderopacity="1"
     objecttolerance="10"
     gridtolerance="10"
     guidetolerance="10"
     inkscape:pageopacity="0"
     inkscape:pageshadow="2"
     inkscape:window-width="1920"
     inkscape:window-height="1028"
     id="namedview194"
     showgrid="false"
     inkscape:zoom="3.6278571"
     inkscape:cx="23.025946"
     inkscape:cy="-26.038381"
     inkscape:window-x="0"
     inkscape:window-y="0"
     inkscape:window-maximized="1"
     inkscape:current-layer="svg192"
     fit-margin-top="0"
     fit-margin-left="0"
     fit-margin-right="0"
     fit-margin-bottom="0" />
  <defs
     id="defs5">
    <clipPath
       id="clip1">
      <path
         d="M 0,276 H 530.97266 V 551.98437 H 0 Z m 0,0"
         id="path2"
         inkscape:connector-curvature="0" />
    </clipPath>
  </defs>
  <title
     id="title6">GitHub</title>
  <path
     inkscape:connector-curvature="0"
     id="path11"
     d="M 16.28906,0 C 7.29297,0 0,7.29297 0,16.28906 c 0,7.19531 4.66797,13.30078 11.14063,15.45703 0.8125,0.14844 1.11328,-0.35547 1.11328,-0.78516 0,-0.38672 -0.0156,-1.41015 -0.0234,-2.76953 C 7.69926,29.17578 6.74223,26.00781 6.74223,26.00781 6.00395,24.125 4.93364,23.625 4.93364,23.625 3.45317,22.61328 5.04692,22.63281 5.04692,22.63281 6.67973,22.75 7.5391,24.3125 7.5391,24.3125 c 1.45313,2.48828 3.81641,1.76953 4.74219,1.35546 0.14844,-1.05468 0.57031,-1.77343 1.03516,-2.17968 -3.61719,-0.41016 -7.42188,-1.8086 -7.42188,-8.05078 0,-1.77735 0.63672,-3.23047 1.67969,-4.3711 C 7.40629,10.65234 6.8477,9 7.73051,6.7539 c 0,0 1.37109,-0.4375 4.48047,1.67188 1.30078,-0.36328 2.69531,-0.54297 4.07812,-0.54688 1.38282,0.004 2.77735,0.1836 4.07813,0.54688 3.10937,-2.10938 4.47656,-1.67188 4.47656,-1.67188 0.88672,2.2461 0.32813,3.89844 0.16016,4.3125 1.04687,1.14063 1.67578,2.59375 1.67578,4.3711 0,6.25781 -3.80859,7.63281 -7.4375,8.03906 0.58594,0.5 1.10547,1.49609 1.10547,3.01562 0,2.17578 -0.0195,3.9336 -0.0195,4.46875 0,0.4336 0.29297,0.94141 1.12109,0.78516 C 27.91413,29.58593 32.5782,23.48437 32.5782,16.28906 32.5782,7.29297 25.28523,0 16.28913,0"
     style="fill:#191714;fill-opacity:1;fill-rule:evenodd;stroke:none" />
</svg>
