<?xml version="1.0" encoding="UTF-8" standalone="no"?>
<!-- Created with Inkscape (http://www.inkscape.org/) -->

<svg
   xmlns:dc="http://purl.org/dc/elements/1.1/"
   xmlns:cc="http://creativecommons.org/ns#"
   xmlns:rdf="http://www.w3.org/1999/02/22-rdf-syntax-ns#"
   xmlns:svg="http://www.w3.org/2000/svg"
   xmlns="http://www.w3.org/2000/svg"
   xmlns:sodipodi="http://sodipodi.sourceforge.net/DTD/sodipodi-0.dtd"
   xmlns:inkscape="http://www.inkscape.org/namespaces/inkscape"
   width="236.9032"
   height="175"
   viewBox="0 0 236.9032 175"
   id="svg5190"
   version="1.1"
   inkscape:version="0.91 r13725"
   sodipodi:docname="gargantua.svg"
   inkscape:export-filename="/home/matt/Pictures/Avatars/gargantua.png"
   inkscape:export-xdpi="150"
   inkscape:export-ydpi="150">
  <defs
     id="defs5192" />
  <sodipodi:namedview
     id="base"
     pagecolor="#ffffb9"
     bordercolor="#666666"
     borderopacity="1.0"
     inkscape:pageopacity="0"
     inkscape:pageshadow="2"
     inkscape:zoom="5.8800388"
     inkscape:cx="118.4516"
     inkscape:cy="95.15488"
     inkscape:document-units="px"
     inkscape:current-layer="layer1"
     showgrid="false"
     units="px"
     inkscape:window-width="1920"
     inkscape:window-height="1024"
     inkscape:window-x="0"
     inkscape:window-y="0"
     inkscape:window-maximized="1"
     fit-margin-top="5"
     fit-margin-left="5"
     fit-margin-right="5"
     fit-margin-bottom="5"
     inkscape:showpageshadow="true"
     showborder="true" />
  <metadata
     id="metadata5195">
    <rdf:RDF>
      <cc:Work
         rdf:about="">
        <dc:format>image/svg+xml</dc:format>
        <dc:type
           rdf:resource="http://purl.org/dc/dcmitype/StillImage" />
        <dc:title></dc:title>
      </cc:Work>
    </rdf:RDF>
  </metadata>
  <g
     inkscape:label="Layer 1"
     inkscape:groupmode="layer"
     id="layer1"
     transform="translate(-9.5484149,-836.86218)">
    <g
       id="g4515"
       transform="matrix(0.8660254,-0.5,0.5,0.8660254,-445.03246,187.84138)">
      <path
         id="rect3681"
         transform="translate(9.5484149,836.86218)"
         d="m 43.857422,111.66992 -22.623047,6.0625 A 39.421001,36.458725 75 0 1 49.625,133.19336 l -5.767578,-21.52344 z"
         mask="none"
         style="color:#000000;display:inline;overflow:visible;visibility:visible;fill:#c27a25;fill-opacity:1;fill-rule:nonzero;stroke:none;stroke-width:20;stroke-linecap:butt;stroke-linejoin:miter;stroke-miterlimit:4;stroke-dasharray:none;stroke-dashoffset:0;stroke-opacity:1;marker:none;enable-background:accumulate"
         inkscape:connector-curvature="0" />
      <path
         id="circle5748"
         transform="translate(9.5484149,836.86218)"
         d="m 121.60156,5.0605469 a 82.5,82.5 0 0 0 -24.501951,2.75 A 82.5,82.5 0 0 0 38.763672,108.85352 82.5,82.5 0 0 0 139.80469,167.18945 82.5,82.5 0 0 0 198.14062,66.146484 82.5,82.5 0 0 0 121.60156,5.0605469 Z M 121.23633,14.625 A 72.928534,72.928534 0 0 1 188.89453,68.626953 72.928534,72.928534 0 0 1 137.32617,157.94336 72.928534,72.928534 0 0 1 48.007812,106.375 72.928534,72.928534 0 0 1 99.576172,17.056641 72.928534,72.928534 0 0 1 121.23633,14.625 Z m -0.16992,4.472656 a 68.451895,68.451895 0 0 0 -20.33203,2.283203 68.451895,68.451895 0 0 0 -48.402349,83.835941 68.451895,68.451895 0 0 0 83.835939,48.40234 68.451895,68.451895 0 0 0 48.40234,-83.835937 68.451895,68.451895 0 0 0 -63.5039,-50.685547 z m -0.0176,3.066406 a 65.35714,65.714287 75 0 1 60.87695,48.328126 65.35714,65.714287 75 0 1 -46.55859,80.138672 65.35714,65.714287 75 0 1 -80.390628,-46.12305 65.35714,65.714287 75 0 1 46.558598,-80.138669 65.35714,65.714287 75 0 1 19.51367,-2.205079 z"
         style="color:#000000;display:inline;overflow:visible;visibility:visible;fill:#c27a25;fill-opacity:1;fill-rule:nonzero;stroke:none;stroke-width:20;stroke-linecap:butt;stroke-linejoin:miter;stroke-miterlimit:4;stroke-dasharray:none;stroke-dashoffset:0;stroke-opacity:1;marker:none;enable-background:accumulate"
         inkscape:connector-curvature="0" />
      <path
         id="rect4500"
         transform="translate(9.5484149,836.86218)"
         d="M 35.998047,82.34375 A 39.421001,36.458725 75 0 1 19.142578,109.92578 L 41.765625,103.86523 35.998047,82.34375 Z"
         mask="none"
         style="color:#000000;display:inline;overflow:visible;visibility:visible;fill:#c27a25;fill-opacity:1;fill-rule:nonzero;stroke:none;stroke-width:20;stroke-linecap:butt;stroke-linejoin:miter;stroke-miterlimit:4;stroke-dasharray:none;stroke-dashoffset:0;stroke-opacity:1;marker:none;enable-background:accumulate"
         inkscape:connector-curvature="0" />
      <path
         id="rect4506"
         transform="translate(9.5484149,836.86218)"
         d="m 187.2793,41.808594 5.76562,21.521484 22.625,-6.0625 A 39.421001,36.458725 75 0 1 187.2793,41.808594 Z"
         mask="none"
         style="color:#000000;display:inline;overflow:visible;visibility:visible;fill:#c27a25;fill-opacity:1;fill-rule:nonzero;stroke:none;stroke-width:20;stroke-linecap:butt;stroke-linejoin:miter;stroke-miterlimit:4;stroke-dasharray:none;stroke-dashoffset:0;stroke-opacity:1;marker:none;enable-background:accumulate"
         inkscape:connector-curvature="0" />
      <path
         id="rect5843"
         transform="translate(9.5484149,836.86218)"
         d="m 217.76172,65.072266 -22.625,6.0625 5.76758,21.527343 a 39.421001,36.458725 75 0 1 16.85742,-27.589843 z"
         mask="none"
         style="color:#000000;display:inline;overflow:visible;visibility:visible;fill:#c27a25;fill-opacity:1;fill-rule:nonzero;stroke:none;stroke-width:20;stroke-linecap:butt;stroke-linejoin:miter;stroke-miterlimit:4;stroke-dasharray:none;stroke-dashoffset:0;stroke-opacity:1;marker:none;enable-background:accumulate"
         inkscape:connector-curvature="0" />
      <path
         transform="translate(9.5484149,836.86218)"
         id="rect5744"
         d="m 221.84375,56.898438 c -5.13432,-7.56e-4 -13.47897,1.332662 -22.72656,3.810546 l -11.75781,3.150391 a 72.928534,72.928534 0 0 1 1.53515,4.767578 72.928534,72.928534 0 0 1 1.125,4.873047 l 11.68555,-3.130859 c 14.79614,-3.964616 26.13099,-9.310714 25.41406,-11.986329 -0.26885,-1.003354 -2.1948,-1.483921 -5.27539,-1.484374 z m -38.75,8.103515 -2.66602,0.714844 a 65.35714,65.714287 75 0 1 1.49805,4.775391 65.35714,65.714287 75 0 1 1.05274,4.894531 l 2.64453,-0.708985 a 68.451895,68.451895 0 0 0 -1.05274,-4.894531 68.451895,68.451895 0 0 0 -1.47656,-4.78125 z M 53.925781,99.613281 51.279297,100.32227 a 68.451895,68.451895 0 0 0 1.052734,4.89453 68.451895,68.451895 0 0 0 1.478516,4.77929 l 2.664062,-0.71289 a 65.35714,65.714287 75 0 1 -1.498047,-4.77539 65.35714,65.714287 75 0 1 -1.050781,-4.894529 z M 46.884766,101.5 35.199219,104.63086 c -14.796145,3.96461 -26.1309915,9.31071 -25.4140628,11.98633 0.7169288,2.67561 13.2058078,1.63844 28.0019528,-2.32617 l 11.757813,-3.1504 A 72.928534,72.928534 0 0 1 48.007812,106.375 72.928534,72.928534 0 0 1 46.884766,101.5 Z"
         style="color:#000000;display:inline;overflow:visible;visibility:visible;fill:#c27a25;fill-opacity:1;fill-rule:nonzero;stroke:none;stroke-width:20;stroke-linecap:butt;stroke-linejoin:miter;stroke-miterlimit:4;stroke-dasharray:none;stroke-dashoffset:0;stroke-opacity:1;marker:none;enable-background:accumulate"
         inkscape:connector-curvature="0" />
      <circle
         transform="matrix(0.96592583,-0.25881905,0.25881905,0.96592583,0,0)"
         r="64"
         cy="925.99414"
         cx="-115.60403"
         id="path5202"
         style="color:#000000;display:inline;overflow:visible;visibility:visible;fill:#1a1a1a;fill-opacity:1;fill-rule:nonzero;stroke:none;stroke-width:20;stroke-linecap:butt;stroke-linejoin:miter;stroke-miterlimit:4;stroke-dasharray:none;stroke-dashoffset:0;stroke-opacity:1;marker:none;enable-background:accumulate" />
      <path
         sodipodi:nodetypes="ccccc"
         inkscape:connector-curvature="0"
         id="rect6035"
         d="m 43.928437,943.70923 c 58.333333,0 118.518873,-16.12666 169.037013,-45.29333 l 2.58819,9.65926 C 165.0355,937.24183 104.84996,953.36849 46.516628,953.36849 Z"
         style="color:#000000;display:inline;overflow:visible;visibility:visible;fill:#c27a25;fill-opacity:1;fill-rule:nonzero;stroke:none;stroke-width:20;stroke-linecap:butt;stroke-linejoin:miter;stroke-miterlimit:4;stroke-dasharray:none;stroke-dashoffset:0;stroke-opacity:1;marker:none;enable-background:accumulate" />
    </g>
  </g>
</svg>
